<svg width="20" height="20" viewBox="0 0 20 20" fill="none" xmlns="http://www.w3.org/2000/svg">
<path opacity="0.3" d="M5.00059 7.125C4.12522 7.16401 3.30041 7.54613 2.70465 8.18868C2.10889 8.83123 1.7901 9.68252 1.81726 10.5583V14.1667C1.78111 15.0481 2.09587 15.908 2.69257 16.5578C3.28927 17.2076 4.11924 17.5944 5.00059 17.6333H15.0006C15.8834 17.5965 16.7155 17.2107 17.314 16.5606C17.9125 15.9106 18.2284 15.0495 18.1923 14.1667V10.5583C18.2194 9.68113 17.8994 8.82863 17.3019 8.18585C16.7044 7.54307 15.8774 7.16188 15.0006 7.125H5.00059Z" fill="#3E97FF"/>
<path d="M9.37543 12.7583V4.5L8.00877 5.875C7.89158 5.99204 7.73272 6.05778 7.5671 6.05778C7.40147 6.05778 7.24262 5.99204 7.12543 5.875C7.06773 5.81768 7.02194 5.74952 6.99069 5.67444C6.95945 5.59935 6.94336 5.51883 6.94336 5.4375C6.94336 5.35617 6.95945 5.27565 6.99069 5.20056C7.02194 5.12548 7.06773 5.05731 7.12543 5L9.55877 2.55833C9.67595 2.44129 9.83481 2.37555 10.0004 2.37555C10.1661 2.37555 10.3249 2.44129 10.4421 2.55833L12.8754 5C12.9342 5.05742 12.9808 5.12615 13.0123 5.20206C13.0438 5.27797 13.0596 5.35948 13.0588 5.44167C13.0592 5.52378 13.0431 5.60515 13.0117 5.68099C12.9802 5.75684 12.9339 5.82563 12.8754 5.88333C12.7582 6.00037 12.5994 6.06612 12.4338 6.06612C12.2681 6.06612 12.1093 6.00037 11.9921 5.88333L10.6254 4.5V12.7583C10.6254 12.9241 10.5596 13.0831 10.4424 13.2003C10.3252 13.3175 10.1662 13.3833 10.0004 13.3833C9.83467 13.3833 9.6757 13.3175 9.55849 13.2003C9.44128 13.0831 9.37543 12.9241 9.37543 12.7583Z" fill="#3E97FF"/>
</svg>
